<mxfile host="Electron" modified="2024-03-20T14:20:21.503Z" agent="Mozilla/5.0 (X11; Linux x86_64) AppleWebKit/537.36 (KHTML, like Gecko) draw.io/24.0.4 Chrome/120.0.6099.109 Electron/28.1.0 Safari/537.36" etag="dfCn6_esA_LXCl_WdUa-" version="24.0.4" type="device">
  <diagram name="Page-1" id="qxko5gEsEpmYtdWIiy4v">
    <mxGraphModel dx="1100" dy="717" grid="0" gridSize="12" guides="1" tooltips="1" connect="1" arrows="1" fold="1" page="1" pageScale="1" pageWidth="850" pageHeight="1100" math="0" shadow="0">
      <root>
        <mxCell id="0" />
        <mxCell id="1" parent="0" />
        <mxCell id="D_nQPGcfK8tJaFP_54WJ-1" value="BitFocus\Timer" style="swimlane;fontStyle=1;align=center;verticalAlign=top;childLayout=stackLayout;horizontal=1;startSize=26;horizontalStack=0;resizeParent=1;resizeParentMax=0;resizeLast=0;collapsible=1;marginBottom=0;whiteSpace=wrap;html=1;fillColor=#BC6C25;fontColor=#FEFAE0;strokeColor=#DDA15E;labelBackgroundColor=none;" vertex="1" parent="1">
          <mxGeometry x="70" y="300" width="160" height="86" as="geometry" />
        </mxCell>
        <mxCell id="D_nQPGcfK8tJaFP_54WJ-2" value="+ field: type" style="text;strokeColor=none;fillColor=none;align=left;verticalAlign=top;spacingLeft=4;spacingRight=4;overflow=hidden;rotatable=0;points=[[0,0.5],[1,0.5]];portConstraint=eastwest;whiteSpace=wrap;html=1;labelBackgroundColor=none;fontColor=#FEFAE0;" vertex="1" parent="D_nQPGcfK8tJaFP_54WJ-1">
          <mxGeometry y="26" width="160" height="26" as="geometry" />
        </mxCell>
        <mxCell id="D_nQPGcfK8tJaFP_54WJ-3" value="" style="line;strokeWidth=1;fillColor=none;align=left;verticalAlign=middle;spacingTop=-1;spacingLeft=3;spacingRight=3;rotatable=0;labelPosition=right;points=[];portConstraint=eastwest;strokeColor=#DDA15E;labelBackgroundColor=none;fontColor=#FEFAE0;" vertex="1" parent="D_nQPGcfK8tJaFP_54WJ-1">
          <mxGeometry y="52" width="160" height="8" as="geometry" />
        </mxCell>
        <mxCell id="D_nQPGcfK8tJaFP_54WJ-4" value="+ method(type): type" style="text;strokeColor=none;fillColor=none;align=left;verticalAlign=top;spacingLeft=4;spacingRight=4;overflow=hidden;rotatable=0;points=[[0,0.5],[1,0.5]];portConstraint=eastwest;whiteSpace=wrap;html=1;labelBackgroundColor=none;fontColor=#FEFAE0;" vertex="1" parent="D_nQPGcfK8tJaFP_54WJ-1">
          <mxGeometry y="60" width="160" height="26" as="geometry" />
        </mxCell>
        <mxCell id="D_nQPGcfK8tJaFP_54WJ-6" value="BitFocus\Timer\Slice" style="swimlane;fontStyle=1;align=center;verticalAlign=top;childLayout=stackLayout;horizontal=1;startSize=26;horizontalStack=0;resizeParent=1;resizeParentMax=0;resizeLast=0;collapsible=1;marginBottom=0;whiteSpace=wrap;html=1;fillColor=#BC6C25;fontColor=#FEFAE0;strokeColor=#DDA15E;labelBackgroundColor=none;" vertex="1" parent="1">
          <mxGeometry x="414" y="303" width="160" height="86" as="geometry" />
        </mxCell>
        <mxCell id="D_nQPGcfK8tJaFP_54WJ-7" value="+ field: type" style="text;strokeColor=none;fillColor=none;align=left;verticalAlign=top;spacingLeft=4;spacingRight=4;overflow=hidden;rotatable=0;points=[[0,0.5],[1,0.5]];portConstraint=eastwest;whiteSpace=wrap;html=1;labelBackgroundColor=none;fontColor=#FEFAE0;" vertex="1" parent="D_nQPGcfK8tJaFP_54WJ-6">
          <mxGeometry y="26" width="160" height="26" as="geometry" />
        </mxCell>
        <mxCell id="D_nQPGcfK8tJaFP_54WJ-8" value="" style="line;strokeWidth=1;fillColor=none;align=left;verticalAlign=middle;spacingTop=-1;spacingLeft=3;spacingRight=3;rotatable=0;labelPosition=right;points=[];portConstraint=eastwest;strokeColor=#DDA15E;labelBackgroundColor=none;fontColor=#FEFAE0;" vertex="1" parent="D_nQPGcfK8tJaFP_54WJ-6">
          <mxGeometry y="52" width="160" height="8" as="geometry" />
        </mxCell>
        <mxCell id="D_nQPGcfK8tJaFP_54WJ-9" value="+ method(type): type" style="text;strokeColor=none;fillColor=none;align=left;verticalAlign=top;spacingLeft=4;spacingRight=4;overflow=hidden;rotatable=0;points=[[0,0.5],[1,0.5]];portConstraint=eastwest;whiteSpace=wrap;html=1;labelBackgroundColor=none;fontColor=#FEFAE0;" vertex="1" parent="D_nQPGcfK8tJaFP_54WJ-6">
          <mxGeometry y="60" width="160" height="26" as="geometry" />
        </mxCell>
        <mxCell id="D_nQPGcfK8tJaFP_54WJ-19" value="" style="endArrow=open;endFill=1;endSize=12;html=1;rounded=0;strokeColor=#DDA15E;fontColor=#FEFAE0;fillColor=#BC6C25;" edge="1" parent="1" source="D_nQPGcfK8tJaFP_54WJ-1" target="D_nQPGcfK8tJaFP_54WJ-6">
          <mxGeometry width="160" relative="1" as="geometry">
            <mxPoint x="238" y="352" as="sourcePoint" />
            <mxPoint x="398" y="352" as="targetPoint" />
          </mxGeometry>
        </mxCell>
        <mxCell id="D_nQPGcfK8tJaFP_54WJ-20" value="Sequence" style="edgeLabel;html=1;align=center;verticalAlign=middle;resizable=0;points=[];strokeColor=#DDA15E;fontColor=#FEFAE0;fillColor=#BC6C25;" vertex="1" connectable="0" parent="D_nQPGcfK8tJaFP_54WJ-19">
          <mxGeometry x="0.1375" y="-2" relative="1" as="geometry">
            <mxPoint as="offset" />
          </mxGeometry>
        </mxCell>
      </root>
    </mxGraphModel>
  </diagram>
</mxfile>
